<mxfile host="drawio-plugin" agent="Mozilla/5.0 (Windows NT 10.0; Win64; x64) AppleWebKit/537.36 (KHTML, like Gecko) Chrome/122.0.0.0 Safari/537.36" modified="2024-09-01T20:34:01.874Z" version="22.1.22" etag="LycyhGhNHNXMuqTbE2Tf" type="embed">
  <diagram name="Page-1" id="GLMZQaARFyHca-dEbuJ_">
    <mxGraphModel dx="462" dy="1367" grid="1" gridSize="10" guides="1" tooltips="1" connect="1" arrows="1" fold="1" page="1" pageScale="1" pageWidth="850" pageHeight="1100" math="0" shadow="0">
      <root>
        <mxCell id="0" />
        <mxCell id="1" parent="0" />
        <mxCell id="KqbX6yXEJz8uA_gayXXh-10" value="" style="edgeStyle=orthogonalEdgeStyle;rounded=0;orthogonalLoop=1;jettySize=auto;html=1;" parent="1" source="GxLkUNRJk42CuBQXuX6_-1" target="6" edge="1">
          <mxGeometry relative="1" as="geometry" />
        </mxCell>
        <mxCell id="GxLkUNRJk42CuBQXuX6_-1" value="Start" style="rounded=1;whiteSpace=wrap;html=1;" parent="1" vertex="1">
          <mxGeometry x="170" y="-20" width="120" height="60" as="geometry" />
        </mxCell>
        <mxCell id="KqbX6yXEJz8uA_gayXXh-11" style="edgeStyle=orthogonalEdgeStyle;rounded=0;orthogonalLoop=1;jettySize=auto;html=1;" parent="1" source="6" target="KqbX6yXEJz8uA_gayXXh-9" edge="1">
          <mxGeometry relative="1" as="geometry" />
        </mxCell>
        <mxCell id="6" value="a(int)&lt;div&gt;&quot;number1&quot;&lt;/div&gt;" style="shape=card;whiteSpace=wrap;html=1;" parent="1" vertex="1">
          <mxGeometry x="160" y="70" width="140" height="100" as="geometry" />
        </mxCell>
        <mxCell id="KqbX6yXEJz8uA_gayXXh-18" value="" style="edgeStyle=orthogonalEdgeStyle;rounded=0;orthogonalLoop=1;jettySize=auto;html=1;" parent="1" source="KqbX6yXEJz8uA_gayXXh-9" target="KqbX6yXEJz8uA_gayXXh-17" edge="1">
          <mxGeometry relative="1" as="geometry" />
        </mxCell>
        <mxCell id="KqbX6yXEJz8uA_gayXXh-19" value="" style="edgeStyle=orthogonalEdgeStyle;rounded=0;orthogonalLoop=1;jettySize=auto;html=1;" parent="1" source="KqbX6yXEJz8uA_gayXXh-9" target="KqbX6yXEJz8uA_gayXXh-15" edge="1">
          <mxGeometry relative="1" as="geometry" />
        </mxCell>
        <mxCell id="KqbX6yXEJz8uA_gayXXh-20" style="edgeStyle=orthogonalEdgeStyle;rounded=0;orthogonalLoop=1;jettySize=auto;html=1;" parent="1" source="KqbX6yXEJz8uA_gayXXh-9" target="KqbX6yXEJz8uA_gayXXh-16" edge="1">
          <mxGeometry relative="1" as="geometry" />
        </mxCell>
        <mxCell id="KqbX6yXEJz8uA_gayXXh-9" value="b(int)&lt;div&gt;&quot;number2&quot;&lt;/div&gt;" style="shape=card;whiteSpace=wrap;html=1;" parent="1" vertex="1">
          <mxGeometry x="160" y="190" width="140" height="100" as="geometry" />
        </mxCell>
        <mxCell id="KqbX6yXEJz8uA_gayXXh-28" value="" style="edgeStyle=orthogonalEdgeStyle;rounded=0;orthogonalLoop=1;jettySize=auto;html=1;" parent="1" source="KqbX6yXEJz8uA_gayXXh-15" target="KqbX6yXEJz8uA_gayXXh-21" edge="1">
          <mxGeometry relative="1" as="geometry" />
        </mxCell>
        <mxCell id="KqbX6yXEJz8uA_gayXXh-15" value="a&amp;lt;b" style="rhombus;whiteSpace=wrap;html=1;" parent="1" vertex="1">
          <mxGeometry x="360" y="200" width="80" height="80" as="geometry" />
        </mxCell>
        <mxCell id="KqbX6yXEJz8uA_gayXXh-16" value="a&amp;gt;b" style="rhombus;whiteSpace=wrap;html=1;" parent="1" vertex="1">
          <mxGeometry x="30" y="200" width="80" height="80" as="geometry" />
        </mxCell>
        <mxCell id="KqbX6yXEJz8uA_gayXXh-24" value="" style="edgeStyle=orthogonalEdgeStyle;rounded=0;orthogonalLoop=1;jettySize=auto;html=1;" parent="1" source="KqbX6yXEJz8uA_gayXXh-17" target="KqbX6yXEJz8uA_gayXXh-23" edge="1">
          <mxGeometry relative="1" as="geometry" />
        </mxCell>
        <mxCell id="KqbX6yXEJz8uA_gayXXh-17" value="a==b" style="rhombus;whiteSpace=wrap;html=1;" parent="1" vertex="1">
          <mxGeometry x="135" y="320" width="200" height="80" as="geometry" />
        </mxCell>
        <mxCell id="KqbX6yXEJz8uA_gayXXh-38" value="" style="edgeStyle=orthogonalEdgeStyle;rounded=0;orthogonalLoop=1;jettySize=auto;html=1;" parent="1" source="KqbX6yXEJz8uA_gayXXh-21" target="KqbX6yXEJz8uA_gayXXh-37" edge="1">
          <mxGeometry relative="1" as="geometry" />
        </mxCell>
        <mxCell id="KqbX6yXEJz8uA_gayXXh-21" value="print b" style="shape=document;whiteSpace=wrap;html=1;boundedLbl=1;" parent="1" vertex="1">
          <mxGeometry x="360" y="390" width="120" height="80" as="geometry" />
        </mxCell>
        <mxCell id="KqbX6yXEJz8uA_gayXXh-41" style="edgeStyle=orthogonalEdgeStyle;rounded=0;orthogonalLoop=1;jettySize=auto;html=1;entryX=0;entryY=0.5;entryDx=0;entryDy=0;" parent="1" source="KqbX6yXEJz8uA_gayXXh-22" target="KqbX6yXEJz8uA_gayXXh-35" edge="1">
          <mxGeometry relative="1" as="geometry" />
        </mxCell>
        <mxCell id="KqbX6yXEJz8uA_gayXXh-22" value="print a" style="shape=document;whiteSpace=wrap;html=1;boundedLbl=1;" parent="1" vertex="1">
          <mxGeometry x="30" y="410" width="120" height="80" as="geometry" />
        </mxCell>
        <mxCell id="KqbX6yXEJz8uA_gayXXh-40" style="edgeStyle=orthogonalEdgeStyle;rounded=0;orthogonalLoop=1;jettySize=auto;html=1;" parent="1" source="KqbX6yXEJz8uA_gayXXh-23" target="KqbX6yXEJz8uA_gayXXh-35" edge="1">
          <mxGeometry relative="1" as="geometry" />
        </mxCell>
        <mxCell id="KqbX6yXEJz8uA_gayXXh-23" value="print a,b" style="shape=document;whiteSpace=wrap;html=1;boundedLbl=1;" parent="1" vertex="1">
          <mxGeometry x="180" y="450" width="120" height="80" as="geometry" />
        </mxCell>
        <mxCell id="KqbX6yXEJz8uA_gayXXh-29" style="edgeStyle=orthogonalEdgeStyle;rounded=0;orthogonalLoop=1;jettySize=auto;html=1;entryX=0.34;entryY=0.025;entryDx=0;entryDy=0;entryPerimeter=0;" parent="1" source="KqbX6yXEJz8uA_gayXXh-16" target="KqbX6yXEJz8uA_gayXXh-22" edge="1">
          <mxGeometry relative="1" as="geometry" />
        </mxCell>
        <mxCell id="KqbX6yXEJz8uA_gayXXh-35" value="End" style="rounded=1;whiteSpace=wrap;html=1;" parent="1" vertex="1">
          <mxGeometry x="170" y="590" width="120" height="60" as="geometry" />
        </mxCell>
        <mxCell id="KqbX6yXEJz8uA_gayXXh-39" style="edgeStyle=orthogonalEdgeStyle;rounded=0;orthogonalLoop=1;jettySize=auto;html=1;entryX=1;entryY=0.5;entryDx=0;entryDy=0;" parent="1" source="KqbX6yXEJz8uA_gayXXh-37" target="KqbX6yXEJz8uA_gayXXh-35" edge="1">
          <mxGeometry relative="1" as="geometry" />
        </mxCell>
        <mxCell id="KqbX6yXEJz8uA_gayXXh-37" value="" style="shape=waypoint;sketch=0;size=6;pointerEvents=1;points=[];fillColor=default;resizable=0;rotatable=0;perimeter=centerPerimeter;snapToPoint=1;" parent="1" vertex="1">
          <mxGeometry x="340" y="610" width="20" height="20" as="geometry" />
        </mxCell>
      </root>
    </mxGraphModel>
  </diagram>
</mxfile>
